<svg width="70" height="78" viewBox="0 0 70 78" fill="none" xmlns="http://www.w3.org/2000/svg">
<mask id="mask0_77_15756" style="mask-type:luminance" maskUnits="userSpaceOnUse" x="0" y="0" width="70" height="43">
<path d="M0 0H69.7095V42.85H0V0Z" fill="white"/>
</mask>
<g mask="url(#mask0_77_15756)">
<path fill-rule="evenodd" clip-rule="evenodd" d="M35.2511 0C53.8693 0 69.829 15.9597 69.829 34.5779C69.829 37.9041 69.1648 40.5644 69.1648 42.5587C65.1744 39.2342 60.5199 37.2381 55.1994 36.574C60.5199 35.908 65.1744 31.2535 65.1744 25.2688C65.1744 19.2841 59.8539 13.9654 53.8693 13.9654C47.2204 13.9654 42.5659 19.2841 42.5659 25.2688C42.5659 27.2649 42.5659 29.2592 43.896 31.2535C41.9017 28.5932 38.5755 26.5989 35.2511 26.5989C31.2625 26.5989 27.9381 28.5932 25.942 31.2535C27.2721 29.2592 27.9381 27.2649 27.9381 25.2688C27.9381 19.2841 22.6176 13.9654 15.9688 13.9654C9.98409 13.9654 4.66358 19.2841 4.66358 25.2688C4.66358 31.2535 9.31812 35.908 14.6386 36.574C9.31812 37.2381 4.66358 39.2342 1.33916 42.5587C0.675002 40.5644 0.0090332 37.9041 0.0090332 34.5779C0.0090332 15.9597 15.9688 0 35.2511 0Z" fill="#F2F3F4"/>
</g>
<mask id="mask1_77_15756" style="mask-type:luminance" maskUnits="userSpaceOnUse" x="12" y="28" width="41" height="50">
<path d="M12.8506 28.9516H52.6929V77.1366H12.8506V28.9516Z" fill="white"/>
</mask>
<g mask="url(#mask1_77_15756)">
<path fill-rule="evenodd" clip-rule="evenodd" d="M35.2512 29.2592C39.9057 29.2592 43.8961 33.2496 43.8961 38.5683C43.8961 43.2228 39.9057 47.2132 35.2512 47.2132C29.9325 47.2132 25.9421 43.2228 25.9421 38.5683C25.9421 33.2496 29.9325 29.2592 35.2512 29.2592ZM13.3086 76.4724C15.3029 75.8064 22.6177 71.1519 17.299 64.5031C19.9574 57.1883 26.6081 51.8678 35.2512 51.8678C43.2319 51.8678 49.8808 57.1883 52.541 64.5031C45.8904 73.1462 27.2722 79.7968 13.3086 76.4724Z" fill="#265EE1"/>
</g>
<path fill-rule="evenodd" clip-rule="evenodd" d="M53.8693 15.9597C58.5256 15.9597 62.5142 20.6142 62.5142 25.2688C62.5142 30.5893 58.5256 34.5779 53.8693 34.5779C48.5506 34.5779 44.5602 30.5893 44.5602 25.2688C44.5602 20.6142 48.5506 15.9597 53.8693 15.9597ZM67.8347 45.2189C65.8386 53.1978 61.1841 59.1825 54.5353 63.1729C51.875 56.5222 45.8903 51.2035 37.9114 49.8734C37.9114 49.2075 37.9114 49.2075 37.9114 49.2075C41.9018 47.8773 45.2262 44.5529 45.8903 40.5643C48.5506 39.2342 51.2108 38.5682 53.8693 38.5682C59.854 38.5682 64.5085 41.2285 67.8347 45.2189Z" fill="#265EE1"/>
<path fill-rule="evenodd" clip-rule="evenodd" d="M15.9688 15.9597C21.2875 15.9597 25.2778 20.6142 25.2778 25.2688C25.2778 30.5893 21.2875 34.5779 15.9688 34.5779C11.3142 34.5779 7.32383 30.5893 7.32383 25.2688C7.32383 20.6142 11.3142 15.9597 15.9688 15.9597ZM15.3028 63.1729C8.65395 59.1825 3.99941 53.1978 2.00513 45.2189C5.32954 41.2285 10.6482 38.5682 15.9688 38.5682C19.2932 38.5682 21.2875 39.2342 23.9477 40.5643C24.6119 44.5529 27.9381 47.8773 31.9267 49.2075C31.9267 49.2075 32.5926 49.2075 32.5926 49.8734H31.9267C24.6119 51.2035 17.963 56.5222 15.3028 63.1729Z" fill="#265EE1"/>
<mask id="mask2_77_15756" style="mask-type:luminance" maskUnits="userSpaceOnUse" x="30" y="52" width="10" height="22">
<path d="M30.2329 52.1284H39.6144V73.3235H30.2329V52.1284Z" fill="white"/>
</mask>
<g mask="url(#mask2_77_15756)">
<path d="M30.4069 68.0791L34.5529 73.1571C34.5981 73.2114 34.6524 73.2548 34.7176 73.2856C34.7827 73.3163 34.8515 73.3308 34.9239 73.3308C34.9944 73.3308 35.0632 73.3163 35.1284 73.2856C35.1935 73.2548 35.2478 73.2114 35.293 73.1571L39.4391 68.0791C39.5332 67.9614 39.5639 67.8311 39.5314 67.6863L36.8132 55.7604L38.4184 52.8034C38.4582 52.731 38.4763 52.655 38.4745 52.5736C38.4727 52.4921 38.4492 52.4161 38.4075 52.3455C38.3641 52.2768 38.3062 52.2207 38.2338 52.1809C38.1614 52.141 38.0836 52.1211 38.0004 52.1211C38.0004 52.1211 36.5942 51.8841 34.8569 51.8841C33.1196 51.8841 31.8456 52.1211 31.8456 52.1211C31.7623 52.1211 31.6845 52.141 31.6121 52.1809C31.5397 52.2207 31.4818 52.2768 31.4402 52.3455C31.3968 52.4161 31.375 52.4921 31.3714 52.5736C31.3696 52.655 31.3895 52.731 31.4275 52.8034L33.0327 55.7586L30.3146 67.6863C30.282 67.8311 30.3128 67.9614 30.4069 68.0791Z" fill="white"/>
</g>
<mask id="mask3_77_15756" style="mask-type:luminance" maskUnits="userSpaceOnUse" x="28" y="37" width="4" height="4">
<path d="M28.6313 37.1386H31.8454V40.2657H28.6313V37.1386Z" fill="white"/>
</mask>
<g mask="url(#mask3_77_15756)">
<path d="M31.6554 38.7022C31.6554 38.9103 31.6174 39.1093 31.5414 39.3012C31.4654 39.493 31.355 39.6613 31.2139 39.8079C31.0727 39.9545 30.9098 40.0685 30.7253 40.1481C30.5407 40.2259 30.347 40.2657 30.148 40.2657C29.9471 40.2657 29.7553 40.2259 29.5707 40.1481C29.3861 40.0685 29.2232 39.9545 29.0802 39.8079C28.9391 39.6613 28.8305 39.493 28.7545 39.3012C28.6785 39.1093 28.6387 38.9103 28.6387 38.7022C28.6387 38.4959 28.6785 38.2968 28.7545 38.105C28.8305 37.9131 28.9391 37.743 29.0802 37.5964C29.2232 37.4498 29.3861 37.3376 29.5707 37.258C29.7553 37.1784 29.9471 37.1386 30.148 37.1386C30.347 37.1386 30.5407 37.1784 30.7253 37.258C30.9098 37.3376 31.0727 37.4498 31.2139 37.5964C31.355 37.743 31.4654 37.9131 31.5414 38.105C31.6174 38.2968 31.6554 38.4959 31.6554 38.7022Z" fill="white"/>
</g>
<mask id="mask4_77_15756" style="mask-type:luminance" maskUnits="userSpaceOnUse" x="33" y="37" width="4" height="4">
<path d="M33.2354 37.1386H36.4783V40.2657H33.2354V37.1386Z" fill="white"/>
</mask>
<g mask="url(#mask4_77_15756)">
<path d="M36.3932 38.7022C36.3932 38.9103 36.3552 39.1093 36.2792 39.3012C36.2014 39.493 36.0928 39.6613 35.9517 39.8079C35.8105 39.9545 35.6476 40.0685 35.463 40.1481C35.2766 40.2259 35.0848 40.2657 34.8858 40.2657C34.6849 40.2657 34.493 40.2259 34.3085 40.1481C34.1239 40.0685 33.9592 39.9545 33.818 39.8079C33.6769 39.6613 33.5683 39.493 33.4923 39.3012C33.4145 39.1093 33.3765 38.9103 33.3765 38.7022C33.3765 38.4959 33.4145 38.2968 33.4923 38.105C33.5683 37.9131 33.6769 37.743 33.818 37.5964C33.9592 37.4498 34.1239 37.3376 34.3085 37.258C34.493 37.1784 34.6849 37.1386 34.8858 37.1386C35.0848 37.1386 35.2766 37.1784 35.463 37.258C35.6476 37.3376 35.8105 37.4498 35.9517 37.5964C36.0928 37.743 36.2014 37.9131 36.2792 38.105C36.3552 38.2968 36.3932 38.4959 36.3932 38.7022Z" fill="white"/>
</g>
<mask id="mask5_77_15756" style="mask-type:luminance" maskUnits="userSpaceOnUse" x="37" y="37" width="5" height="4">
<path d="M37.8679 37.1386H41.1399V40.2657H37.8679V37.1386Z" fill="white"/>
</mask>
<g mask="url(#mask5_77_15756)">
<path d="M41.131 38.7022C41.131 38.9103 41.093 39.1093 41.0152 39.3012C40.9392 39.493 40.8306 39.6613 40.6895 39.8079C40.5483 39.9545 40.3836 40.0685 40.199 40.1481C40.0144 40.2259 39.8226 40.2657 39.6217 40.2657C39.4227 40.2657 39.2308 40.2259 39.0444 40.1481C38.8599 40.0685 38.697 39.9545 38.5558 39.8079C38.4147 39.6613 38.3061 39.493 38.2283 39.3012C38.1523 39.1093 38.1143 38.9103 38.1143 38.7022C38.1143 38.4959 38.1523 38.2968 38.2283 38.105C38.3061 37.9131 38.4147 37.743 38.5558 37.5964C38.697 37.4498 38.8599 37.3376 39.0444 37.258C39.2308 37.1784 39.4227 37.1386 39.6217 37.1386C39.8226 37.1386 40.0144 37.1784 40.199 37.258C40.3836 37.3376 40.5483 37.4498 40.6895 37.5964C40.8306 37.743 40.9392 37.9131 41.0152 38.105C41.093 38.2968 41.131 38.4959 41.131 38.7022Z" fill="white"/>
</g>
<mask id="mask6_77_15756" style="mask-type:luminance" maskUnits="userSpaceOnUse" x="9" y="23" width="5" height="4">
<path d="M9.94434 23.6744H13.314V26.8016H9.94434V23.6744Z" fill="white"/>
</mask>
<g mask="url(#mask6_77_15756)">
<path d="M12.9701 25.238C12.9701 25.4462 12.9303 25.6452 12.8543 25.8371C12.7783 26.0289 12.6697 26.1972 12.5268 26.3438C12.3856 26.4904 12.2227 26.6044 12.0381 26.6822C11.8536 26.7618 11.6617 26.8016 11.4608 26.8016C11.2618 26.8016 11.0681 26.7618 10.8836 26.6822C10.699 26.6044 10.5361 26.4904 10.3949 26.3438C10.2538 26.1972 10.1434 26.0289 10.0674 25.8371C9.99137 25.6452 9.95337 25.4462 9.95337 25.238C9.95337 25.0317 9.99137 24.8309 10.0674 24.6408C10.1434 24.449 10.2538 24.2789 10.3949 24.1323C10.5361 23.9857 10.699 23.8735 10.8836 23.7939C11.0681 23.7143 11.2618 23.6745 11.4608 23.6745C11.6617 23.6745 11.8536 23.7143 12.0381 23.7939C12.2227 23.8735 12.3856 23.9857 12.5268 24.1323C12.6697 24.2789 12.7783 24.449 12.8543 24.6408C12.9303 24.8309 12.9701 25.0317 12.9701 25.238Z" fill="white"/>
</g>
<mask id="mask7_77_15756" style="mask-type:luminance" maskUnits="userSpaceOnUse" x="14" y="23" width="4" height="4">
<path d="M14.2402 23.6745H17.9465V26.8016H14.2402V23.6745Z" fill="white"/>
</mask>
<g mask="url(#mask7_77_15756)">
<path d="M17.706 25.238C17.706 25.4462 17.668 25.6452 17.592 25.8371C17.516 26.0289 17.4056 26.1972 17.2644 26.3438C17.1233 26.4904 16.9604 26.6044 16.7758 26.6822C16.5912 26.7618 16.3976 26.8016 16.1985 26.8016C15.9976 26.8016 15.8058 26.7618 15.6212 26.6822C15.4366 26.6044 15.2737 26.4904 15.1326 26.3438C14.9896 26.1972 14.881 26.0289 14.805 25.8371C14.729 25.6452 14.6892 25.4462 14.6892 25.238C14.6892 25.0317 14.729 24.8309 14.805 24.6408C14.881 24.449 14.9896 24.2789 15.1326 24.1323C15.2737 23.9857 15.4366 23.8735 15.6212 23.7939C15.8058 23.7143 15.9976 23.6745 16.1985 23.6745C16.3976 23.6745 16.5912 23.7143 16.7758 23.7939C16.9604 23.8735 17.1233 23.9857 17.2644 24.1323C17.4056 24.2789 17.516 24.449 17.592 24.6408C17.668 24.8309 17.706 25.0317 17.706 25.238Z" fill="white"/>
</g>
<mask id="mask8_77_15756" style="mask-type:luminance" maskUnits="userSpaceOnUse" x="19" y="23" width="4" height="4">
<path d="M19.3364 23.6745H22.4527V26.8016H19.3364V23.6745Z" fill="white"/>
</mask>
<g mask="url(#mask8_77_15756)">
<path d="M22.4438 25.238C22.4438 25.4462 22.4058 25.6452 22.3298 25.8371C22.2519 26.0289 22.1434 26.1972 22.0022 26.3438C21.861 26.4904 21.6982 26.6044 21.5136 26.6822C21.3272 26.7618 21.1354 26.8016 20.9363 26.8016C20.7354 26.8016 20.5436 26.7618 20.359 26.6822C20.1744 26.6044 20.0097 26.4904 19.8686 26.3438C19.7274 26.1972 19.6188 26.0289 19.5428 25.8371C19.465 25.6452 19.427 25.4462 19.427 25.238C19.427 25.0317 19.465 24.8309 19.5428 24.6408C19.6188 24.449 19.7274 24.2789 19.8686 24.1323C20.0097 23.9857 20.1744 23.8735 20.359 23.7939C20.5436 23.7143 20.7354 23.6745 20.9363 23.6745C21.1354 23.6745 21.3272 23.7143 21.5136 23.7939C21.6982 23.8735 21.861 23.9857 22.0022 24.1323C22.1434 24.2789 22.2519 24.449 22.3298 24.6408C22.4058 24.8309 22.4438 25.0317 22.4438 25.238Z" fill="white"/>
</g>
<mask id="mask9_77_15756" style="mask-type:luminance" maskUnits="userSpaceOnUse" x="47" y="23" width="4" height="4">
<path d="M47.5825 23.6744H50.84V26.8016H47.5825V23.6744Z" fill="white"/>
</mask>
<g mask="url(#mask9_77_15756)">
<path d="M50.6083 25.238C50.6083 25.4462 50.5703 25.6452 50.4925 25.8371C50.4165 26.0289 50.3079 26.1972 50.1668 26.3438C50.0256 26.4904 49.8609 26.6044 49.6763 26.6822C49.4917 26.7618 49.2999 26.8016 49.099 26.8016C48.9 26.8016 48.7063 26.7618 48.5217 26.6822C48.3371 26.6044 48.1743 26.4904 48.0331 26.3438C47.892 26.1972 47.7834 26.0289 47.7056 25.8371C47.6296 25.6452 47.5916 25.4462 47.5916 25.238C47.5916 25.0317 47.6296 24.8309 47.7056 24.6408C47.7834 24.449 47.892 24.2789 48.0331 24.1323C48.1743 23.9857 48.3371 23.8735 48.5217 23.7939C48.7063 23.7143 48.9 23.6745 49.099 23.6745C49.2999 23.6745 49.4917 23.7143 49.6763 23.7939C49.8609 23.8735 50.0256 23.9857 50.1668 24.1323C50.3079 24.2789 50.4165 24.449 50.4925 24.6408C50.5703 24.8309 50.6083 25.0317 50.6083 25.238Z" fill="white"/>
</g>
<mask id="mask10_77_15756" style="mask-type:luminance" maskUnits="userSpaceOnUse" x="52" y="23" width="4" height="4">
<path d="M52.23 23.6745H55.473V26.8016H52.23V23.6745Z" fill="white"/>
</mask>
<g mask="url(#mask10_77_15756)">
<path d="M55.3464 25.238C55.3464 25.4462 55.3065 25.6452 55.2305 25.8371C55.1545 26.0289 55.0459 26.1972 54.903 26.3438C54.7618 26.4904 54.599 26.6044 54.4144 26.6822C54.2298 26.7618 54.0379 26.8016 53.8371 26.8016C53.638 26.8016 53.4444 26.7618 53.2598 26.6822C53.0752 26.6044 52.9123 26.4904 52.7712 26.3438C52.63 26.1972 52.5196 26.0289 52.4436 25.8371C52.3676 25.6452 52.3296 25.4462 52.3296 25.238C52.3296 25.0317 52.3676 24.8309 52.4436 24.6408C52.5196 24.449 52.63 24.2789 52.7712 24.1323C52.9123 23.9857 53.0752 23.8735 53.2598 23.7939C53.4444 23.7143 53.638 23.6745 53.8371 23.6745C54.0379 23.6745 54.2298 23.7143 54.4144 23.7939C54.599 23.8735 54.7618 23.9857 54.903 24.1323C55.0459 24.2789 55.1545 24.449 55.2305 24.6408C55.3065 24.8309 55.3464 25.0317 55.3464 25.238Z" fill="white"/>
</g>
<mask id="mask11_77_15756" style="mask-type:luminance" maskUnits="userSpaceOnUse" x="56" y="23" width="5" height="4">
<path d="M56.8628 23.6745H60.0913V26.8016H56.8628V23.6745Z" fill="white"/>
</mask>
<g mask="url(#mask11_77_15756)">
<path d="M60.0822 25.238C60.0822 25.4462 60.0442 25.6452 59.9682 25.8371C59.8922 26.0289 59.7818 26.1972 59.6406 26.3438C59.4995 26.4904 59.3366 26.6044 59.152 26.6822C58.9674 26.7618 58.7738 26.8016 58.5747 26.8016C58.3738 26.8016 58.182 26.7618 57.9974 26.6822C57.8128 26.6044 57.65 26.4904 57.5088 26.3438C57.3658 26.1972 57.2573 26.0289 57.1813 25.8371C57.1052 25.6452 57.0654 25.4462 57.0654 25.238C57.0654 25.0317 57.1052 24.8309 57.1813 24.6408C57.2573 24.449 57.3658 24.2789 57.5088 24.1323C57.65 23.9857 57.8128 23.8735 57.9974 23.7939C58.182 23.7143 58.3738 23.6745 58.5747 23.6745C58.7738 23.6745 58.9674 23.7143 59.152 23.7939C59.3366 23.8735 59.4995 23.9857 59.6406 24.1323C59.7818 24.2789 59.8922 24.449 59.9682 24.6408C60.0442 24.8309 60.0822 25.0317 60.0822 25.238Z" fill="white"/>
</g>
</svg>
