<svg width="21" height="21" viewBox="0 0 21 21" fill="none" xmlns="http://www.w3.org/2000/svg">
<path d="M10.407 2.70571C12.9967 2.70571 13.3034 2.71536 14.3265 2.76179C14.9416 2.76928 15.5509 2.88169 16.1278 3.09414C16.5462 3.25472 16.9262 3.50071 17.2432 3.81628C17.5603 4.13185 17.8075 4.51 17.9689 4.92639C18.1823 5.50058 18.2953 6.10694 18.3028 6.71912C18.349 7.73729 18.3591 8.04252 18.3591 10.6199C18.3591 13.1973 18.3495 13.5025 18.3028 14.5207C18.2953 15.1329 18.1823 15.7392 17.9689 16.3134C17.8075 16.7298 17.5603 17.108 17.2432 17.4235C16.9262 17.7391 16.5462 17.9851 16.1278 18.1457C15.5509 18.3581 14.9416 18.4705 14.3265 18.478C13.3039 18.524 12.9972 18.5341 10.407 18.5341C7.81676 18.5341 7.51007 18.5244 6.48747 18.478C5.87236 18.4705 5.26309 18.3581 4.68615 18.1457C4.26776 17.9851 3.88779 17.7391 3.57071 17.4235C3.25362 17.108 3.00645 16.7298 2.8451 16.3134C2.63163 15.7392 2.51868 15.1329 2.51116 14.5207C2.46497 13.5025 2.45481 13.1973 2.45481 10.6199C2.45481 8.04252 2.46451 7.73729 2.51116 6.71912C2.51868 6.10694 2.63163 5.50058 2.8451 4.92639C3.00645 4.51 3.25362 4.13185 3.57071 3.81628C3.88779 3.50071 4.26776 3.25472 4.68615 3.09414C5.26309 2.88169 5.87236 2.76928 6.48747 2.76179C7.51054 2.71582 7.81722 2.70571 10.407 2.70571ZM10.407 0.966309C7.77427 0.966309 7.44264 0.977341 6.40803 1.02423C5.603 1.04016 4.80651 1.19186 4.05245 1.47287C3.40558 1.71542 2.81969 2.09553 2.33564 2.58666C1.84171 3.06857 1.45946 3.65199 1.21559 4.29618C0.933231 5.04664 0.780805 5.83932 0.764793 6.64051C0.718605 7.66926 0.70752 7.99931 0.70752 10.6194C0.70752 13.2396 0.718605 13.5696 0.765716 14.5993C0.781729 15.4005 0.934155 16.1932 1.21651 16.9436C1.46011 17.5877 1.84204 18.1712 2.33564 18.6532C2.81996 19.1444 3.40618 19.5245 4.05337 19.7669C4.80743 20.0479 5.60392 20.1996 6.40895 20.2156C7.44356 20.2615 7.77381 20.2735 10.4079 20.2735C13.042 20.2735 13.3722 20.2625 14.4069 20.2156C15.2119 20.1996 16.0084 20.0479 16.7624 19.7669C17.4066 19.5185 17.9915 19.1389 18.4798 18.6526C18.9681 18.1663 19.3491 17.5839 19.5984 16.9427C19.8807 16.1922 20.0332 15.3996 20.0492 14.5984C20.0954 13.5696 20.1064 13.2396 20.1064 10.6194C20.1064 7.99931 20.0954 7.66926 20.0482 6.63959C20.0322 5.83841 19.8798 5.04572 19.5974 4.29526C19.3538 3.65116 18.9719 3.06774 18.4783 2.58574C17.994 2.09449 17.4078 1.71438 16.7606 1.47195C16.0065 1.19094 15.21 1.03924 14.405 1.02331C13.3713 0.977341 13.0397 0.966309 10.407 0.966309Z" fill="#27272A"/>
<path d="M10.4052 5.6626C9.42009 5.6626 8.45709 5.95333 7.63798 6.49802C6.81887 7.04272 6.18046 7.81691 5.80347 8.72271C5.42647 9.6285 5.32784 10.6252 5.52003 11.5868C5.71221 12.5484 6.1866 13.4317 6.88319 14.1249C7.57978 14.8182 8.4673 15.2903 9.4335 15.4816C10.3997 15.6728 11.4012 15.5747 12.3113 15.1995C13.2215 14.8243 13.9994 14.1889 14.5467 13.3737C15.094 12.5585 15.3861 11.6001 15.3861 10.6197C15.3861 9.305 14.8614 8.04414 13.9273 7.1145C12.9932 6.18486 11.7262 5.6626 10.4052 5.6626ZM10.4052 13.8374C9.76577 13.8374 9.14067 13.6487 8.60898 13.2951C8.07729 12.9416 7.66289 12.439 7.41818 11.8511C7.17347 11.2631 7.10944 10.6161 7.23419 9.99197C7.35894 9.36779 7.66687 8.79445 8.11904 8.34445C8.5712 7.89444 9.14729 7.58798 9.77447 7.46383C10.4016 7.33967 11.0517 7.40339 11.6425 7.64693C12.2333 7.89048 12.7382 8.3029 13.0935 8.83205C13.4488 9.3612 13.6384 9.98331 13.6384 10.6197C13.6384 11.4731 13.2977 12.2915 12.6914 12.895C12.0851 13.4984 11.2627 13.8374 10.4052 13.8374Z" fill="#27272A"/>
<path d="M15.5836 6.62486C16.2264 6.62486 16.7475 6.10624 16.7475 5.46648C16.7475 4.82673 16.2264 4.30811 15.5836 4.30811C14.9408 4.30811 14.4197 4.82673 14.4197 5.46648C14.4197 6.10624 14.9408 6.62486 15.5836 6.62486Z" fill="#27272A"/>
</svg>
