<svg width="19" height="19" viewBox="0 0 19 19" fill="none" xmlns="http://www.w3.org/2000/svg">
<path fill-rule="evenodd" clip-rule="evenodd" d="M9.72192 0.966309C4.58032 0.966309 0.443848 5.08303 0.443848 10.2001C0.443848 14.2783 3.11129 17.741 6.78387 18.9722C7.24777 19.0491 7.4024 18.7798 7.4024 18.5105C7.4024 18.2796 7.4024 17.7025 7.4024 16.933C4.81228 17.5101 4.27105 15.7019 4.27105 15.7019C3.84581 14.6246 3.22727 14.3553 3.22727 14.3553C2.37678 13.7782 3.30459 13.7782 3.30459 13.7782C4.2324 13.8551 4.73496 14.74 4.73496 14.74C5.54679 16.1635 6.89984 15.7403 7.44106 15.5095C7.51838 14.8939 7.75033 14.5092 8.02094 14.2783C5.97203 14.0475 3.80715 13.2395 3.80715 9.69991C3.80715 8.69959 4.15508 7.85316 4.77362 7.23757C4.6963 7.00673 4.34837 6.08335 4.85093 4.77524C4.85093 4.77524 5.62411 4.54439 7.4024 5.73709C8.13692 5.54472 8.94875 5.4293 9.72192 5.4293C10.4951 5.4293 11.3069 5.54472 12.0414 5.73709C13.8197 4.54439 14.5929 4.77524 14.5929 4.77524C15.0955 6.04488 14.7862 6.96826 14.6702 7.23757C15.2501 7.89163 15.6367 8.69959 15.6367 9.69991C15.6367 13.2395 13.4718 14.009 11.3842 14.2398C11.7322 14.5092 12.0028 15.0863 12.0028 15.9327C12.0028 17.1639 12.0028 18.1642 12.0028 18.472C12.0028 18.7028 12.1574 19.0106 12.66 18.9337C16.3326 17.741 19 14.2783 19 10.2001C19 5.08303 14.8635 0.966309 9.72192 0.966309Z" fill="#27272A"/>
</svg>
