<svg width="66" height="66" viewBox="0 0 66 66" fill="none" xmlns="http://www.w3.org/2000/svg">
<rect x="5" y="5" width="56" height="56" rx="28" fill="#D9E3FA"/>
<rect x="5" y="5" width="56" height="56" rx="28" stroke="#F7F9FE" stroke-width="10"/>
<path d="M29.5 39.4167H23.0834M26.5834 33H21.3334M29.5 26.5833H23.6667M38.8334 22.5L31.1375 33.2742C30.7969 33.7511 30.6266 33.9895 30.634 34.1883C30.6404 34.3614 30.7234 34.5226 30.8605 34.6285C31.018 34.75 31.311 34.75 31.897 34.75H37.6667L36.5 43.5L44.1959 32.7258C44.5365 32.2489 44.7068 32.0105 44.6994 31.8117C44.693 31.6386 44.61 31.4774 44.4729 31.3715C44.3154 31.25 44.0224 31.25 43.4364 31.25H37.6667L38.8334 22.5Z" stroke="#265EE1" stroke-width="2" stroke-linecap="round" stroke-linejoin="round"/>
</svg>
