<svg width="17" height="14" viewBox="0 0 17 14" fill="none" xmlns="http://www.w3.org/2000/svg">
<path d="M16.9788 2.32015C16.3789 2.58552 15.7456 2.75139 15.0789 2.8509C15.7456 2.45283 16.2789 1.82256 16.5122 1.0596C15.8789 1.42449 15.1789 1.68987 14.4123 1.85573C13.8124 1.22546 12.9457 0.827393 12.0125 0.827393C10.2126 0.827393 8.74597 2.28697 8.74597 4.07828C8.74597 4.34365 8.7793 4.57586 8.84596 4.80807C6.14611 4.67538 3.71292 3.38166 2.07967 1.39132C1.81302 1.88891 1.64637 2.41966 1.64637 3.01676C1.64637 4.14462 2.213 5.13979 3.11295 5.73689C2.57965 5.70372 2.07967 5.57103 1.61303 5.33882V5.372C1.61303 6.96427 2.7463 8.29116 4.24622 8.58971C3.97957 8.65605 3.67959 8.68922 3.3796 8.68922C3.17961 8.68922 2.94629 8.65605 2.7463 8.62288C3.17961 9.9166 4.37955 10.8786 5.8128 10.8786C4.67953 11.7411 3.27961 12.2718 1.74636 12.2718C1.47971 12.2718 1.21306 12.2718 0.979736 12.2387C2.44632 13.1675 4.14623 13.6982 6.01279 13.6982C12.0458 13.6982 15.3456 8.7224 15.3456 4.41C15.3456 4.27731 15.3456 4.11145 15.3456 3.97876C15.9789 3.54752 16.5455 2.98359 16.9788 2.32015Z" fill="#27272A"/>
</svg>
