<svg width="39" height="31" viewBox="0 0 39 31" fill="none" xmlns="http://www.w3.org/2000/svg">
<path d="M38.902 30.87H24.286C22.858 26.25 22.144 21.462 22.144 16.506C22.144 11.466 23.446 7.476 26.05 4.53599C28.738 1.512 32.686 0 37.894 0V7.056C33.694 7.056 31.594 9.618 31.594 14.742V17.136H38.902V30.87ZM17.608 30.87H2.99198C1.56398 26.25 0.849976 21.462 0.849976 16.506C0.849976 11.466 2.15198 7.476 4.75598 4.53599C7.44398 1.512 11.392 0 16.6 0V7.056C12.4 7.056 10.3 9.618 10.3 14.742V17.136H17.608V30.87Z" fill="#265EE1"/>
</svg>
