<svg width="44" height="44" viewBox="0 0 44 44" fill="none" xmlns="http://www.w3.org/2000/svg">
<g filter="url(#filter0_d_1228_199)">
<rect x="2" y="1" width="40" height="40" rx="8" fill="white"/>
<rect x="2.5" y="1.5" width="39" height="39" rx="7.5" stroke="#D0D5DD"/>
<g clip-path="url(#clip0_1228_199)">
<path d="M21.167 14.3333H17.667C16.2669 14.3333 15.5668 14.3333 15.032 14.6058C14.5616 14.8455 14.1792 15.2279 13.9395 15.6983C13.667 16.2331 13.667 16.9332 13.667 18.3333V25.3333C13.667 26.7335 13.667 27.4335 13.9395 27.9683C14.1792 28.4387 14.5616 28.8212 15.032 29.0608C15.5668 29.3333 16.2669 29.3333 17.667 29.3333H24.667C26.0671 29.3333 26.7672 29.3333 27.302 29.0608C27.7724 28.8212 28.1548 28.4387 28.3945 27.9683C28.667 27.4335 28.667 26.7335 28.667 25.3333V21.8333M18.667 24.3333H20.0624C20.4701 24.3333 20.6739 24.3333 20.8657 24.2873C21.0358 24.2464 21.1983 24.1791 21.3475 24.0877C21.5157 23.9847 21.6598 23.8405 21.948 23.5523L29.917 15.5833C30.6073 14.893 30.6073 13.7737 29.917 13.0833C29.2266 12.393 28.1073 12.393 27.417 13.0833L19.448 21.0523C19.1598 21.3405 19.0156 21.4847 18.9126 21.6528C18.8212 21.802 18.7538 21.9645 18.713 22.1346C18.667 22.3264 18.667 22.5302 18.667 22.9379V24.3333Z" stroke="#344054" stroke-width="1.66667" stroke-linecap="round" stroke-linejoin="round"/>
</g>
</g>
<defs>
<filter id="filter0_d_1228_199" x="0" y="0" width="44" height="44" filterUnits="userSpaceOnUse" color-interpolation-filters="sRGB">
<feFlood flood-opacity="0" result="BackgroundImageFix"/>
<feColorMatrix in="SourceAlpha" type="matrix" values="0 0 0 0 0 0 0 0 0 0 0 0 0 0 0 0 0 0 127 0" result="hardAlpha"/>
<feOffset dy="1"/>
<feGaussianBlur stdDeviation="1"/>
<feColorMatrix type="matrix" values="0 0 0 0 0.0627451 0 0 0 0 0.0941176 0 0 0 0 0.156863 0 0 0 0.05 0"/>
<feBlend mode="normal" in2="BackgroundImageFix" result="effect1_dropShadow_1228_199"/>
<feBlend mode="normal" in="SourceGraphic" in2="effect1_dropShadow_1228_199" result="shape"/>
</filter>
<clipPath id="clip0_1228_199">
<rect width="20" height="20" fill="white" transform="translate(12 11)"/>
</clipPath>
</defs>
</svg>
