<svg width="15" height="16" viewBox="0 0 15 16" fill="none" xmlns="http://www.w3.org/2000/svg">
<path d="M8.48433 2.34224L9.65766 4.6889C9.81766 5.01557 10.2443 5.3289 10.6043 5.3889L12.731 5.74224C14.091 5.9689 14.411 6.95557 13.431 7.9289L11.7777 9.58224C11.4977 9.86224 11.3443 10.4022 11.431 10.7889L11.9043 12.8356C12.2777 14.4556 11.4177 15.0822 9.98433 14.2356L7.99099 13.0556C7.63099 12.8422 7.03766 12.8422 6.67099 13.0556L4.67766 14.2356C3.25099 15.0822 2.38433 14.4489 2.75766 12.8356L3.23099 10.7889C3.31766 10.4022 3.16433 9.86224 2.88433 9.58224L1.23099 7.9289C0.257661 6.95557 0.570994 5.9689 1.93099 5.74224L4.05766 5.3889C4.41099 5.3289 4.83766 5.01557 4.99766 4.6889L6.17099 2.34224C6.81099 1.0689 7.85099 1.0689 8.48433 2.34224Z" fill="#265EE1" stroke="#265EE1" stroke-linecap="round" stroke-linejoin="round"/>
</svg>
