<svg width="26" height="26" viewBox="0 0 26 26" fill="none" xmlns="http://www.w3.org/2000/svg">
<path d="M6.78538 5.327L18.2548 1.50385C23.4019 -0.211834 26.1983 2.59811 24.4961 7.74518L20.673 19.2146C18.1062 26.9285 13.8913 26.9285 11.3245 19.2146L10.1897 15.8103L6.78538 14.6755C-0.92846 12.1087 -0.92846 7.90729 6.78538 5.327ZM10.4464 15.2294L15.2828 10.3795L10.4464 15.2294Z" fill="#265EE1"/>
<path d="M10.4464 15.2294L15.2828 10.3795M6.78538 5.327L18.2548 1.50385C23.4019 -0.211834 26.1983 2.59811 24.4961 7.74518L20.673 19.2146C18.1062 26.9285 13.8913 26.9285 11.3245 19.2146L10.1897 15.8103L6.78538 14.6755C-0.92846 12.1087 -0.92846 7.90729 6.78538 5.327Z" stroke="#F2F2F4" stroke-width="1.5" stroke-linecap="round" stroke-linejoin="round"/>
</svg>
