<svg width="164" height="33" viewBox="0 0 164 33" fill="none" xmlns="http://www.w3.org/2000/svg">
<path d="M16.3044 4.07608L19.932 12.3454L28.5327 13.4176L22.174 19.6006L23.8619 28.5326L16.3044 24.0845L8.74695 28.5326L10.4349 19.6006L4.07617 13.4176L12.6768 12.3454L16.3044 4.07608Z" fill="#F8C51B"/>
<path d="M48.9133 4.07608L52.5409 12.3454L61.1416 13.4176L54.7829 19.6006L56.4708 28.5326L48.9133 24.0845L41.3558 28.5326L43.0438 19.6006L36.6851 13.4176L45.2857 12.3454L48.9133 4.07608Z" fill="#F8C51B"/>
<path d="M81.5222 4.07608L85.1498 12.3454L93.7505 13.4176L87.3918 19.6006L89.0797 28.5326L81.5222 24.0845L73.9647 28.5326L75.6526 19.6006L69.2939 13.4176L77.8946 12.3454L81.5222 4.07608Z" fill="#F8C51B"/>
<path d="M114.131 4.07608L110.503 12.3454L101.902 13.4176L108.261 19.6006L106.573 28.5326L114.131 24.0845V4.07608Z" fill="#F8C51B"/>
<path d="M114.13 24.0845L121.688 28.5326L120 19.6006L126.359 13.4176L117.758 12.3454L114.13 4.07608V24.0845Z" fill="#DDE2E4"/>
<path d="M146.739 4.07608L150.367 12.3454L158.968 13.4176L152.609 19.6006L154.297 28.5326L146.739 24.0845L139.182 28.5326L140.87 19.6006L134.511 13.4176L143.112 12.3454L146.739 4.07608Z" fill="#D5DADD"/>
</svg>
