<svg width="45" height="44" viewBox="0 0 45 44" fill="none" xmlns="http://www.w3.org/2000/svg">
<path d="M16.2141 31.4286C24.8929 31.4286 31.9284 24.393 31.9284 15.7143C31.9284 14.7307 31.8381 13.7682 31.6652 12.8347C30.7316 12.6618 29.7692 12.5714 28.7856 12.5714C20.1068 12.5714 13.0713 19.607 13.0713 28.2857C13.0713 29.2693 13.1617 30.2318 13.3345 31.1653C14.2681 31.3382 15.2306 31.4286 16.2141 31.4286Z" fill="#EB455F"/>
<path fill-rule="evenodd" clip-rule="evenodd" d="M13.3347 31.1653C6.03118 29.8127 0.5 23.4095 0.5 15.7143C0.5 7.03552 7.53553 0 16.2143 0C23.9095 0 30.3128 5.53118 31.6653 12.8347C30.7318 12.6618 29.7693 12.5714 28.7857 12.5714C20.107 12.5714 13.0714 19.607 13.0714 28.2857C13.0714 29.2693 13.1618 30.2318 13.3347 31.1653Z" fill="#EB455F"/>
<path fill-rule="evenodd" clip-rule="evenodd" d="M16.2141 31.4285C24.8928 31.4285 31.9284 24.393 31.9284 15.7142C31.9284 14.7306 31.838 13.7681 31.6651 12.8346C38.9686 14.1872 44.4998 20.5905 44.4998 28.2856C44.4998 36.9644 37.4643 43.9999 28.7855 43.9999C21.0903 43.9999 14.687 38.4688 13.3345 31.1652C14.268 31.3381 15.2305 31.4285 16.2141 31.4285Z" fill="#FF675E"/>
</svg>
