<svg width="44" height="45" viewBox="0 0 44 45" fill="none" xmlns="http://www.w3.org/2000/svg">
<path d="M13.2778 21.3182C14.1 18.2499 17.2539 15.096 20.3222 14.2738L39.4512 9.14741C42.5194 8.32515 44.3402 10.1459 43.5179 13.2142L38.3916 32.3431C37.5693 35.4114 34.4154 38.5653 31.3471 39.3876L12.2181 44.5139C9.14988 45.3362 7.32913 43.5155 8.15139 40.4472L13.2778 21.3182Z" fill="#FF675E"/>
<path d="M5.60882 12.6597C6.43108 9.59139 9.58498 6.43749 12.6533 5.61522L31.7822 0.488855C34.8505 -0.33341 36.6713 1.48734 35.849 4.55561L30.7226 23.6846C29.9004 26.7529 26.7465 29.9068 23.6782 30.729L4.5492 35.8554C1.48093 36.6777 -0.339816 34.8569 0.482448 31.7886L5.60882 12.6597Z" fill="#EB455F"/>
</svg>
